<?xml version="1.0" encoding="UTF-8"?>
<svg width="24px" height="24px" viewBox="0 0 24 24" version="1.1" xmlns="http://www.w3.org/2000/svg" xmlns:xlink="http://www.w3.org/1999/xlink">
    <!-- Generator: Sketch 57.1 (83088) - https://sketch.com -->
    <title>Icons / 24px / Outline / Add</title>
    <desc>Created with Sketch.</desc>
    <g id="Icons-/-24px-/-Outline-/-Add" stroke="none" stroke-width="1" fill="none" fill-rule="evenodd">
        <path d="M12,4.35 C12.3589851,4.35 12.65,4.64101491 12.65,5 L12.65,5 L12.65,11.35 L19,11.35 C19.3263501,11.35 19.5965265,11.5905082 19.6429523,11.9039478 L19.65,12 C19.65,12.3589851 19.3589851,12.65 19,12.65 L19,12.65 L12.65,12.65 L12.65,19 C12.65,19.3263501 12.4094918,19.5965265 12.0960522,19.6429523 L12,19.65 C11.6410149,19.65 11.35,19.3589851 11.35,19 L11.35,19 L11.35,12.65 L5,12.65 C4.67364992,12.65 4.40347354,12.4094918 4.35704767,12.0960522 L4.35,12 C4.35,11.6410149 4.64101491,11.35 5,11.35 L5,11.35 L11.35,11.35 L11.35,5 C11.35,4.67364992 11.5905082,4.40347354 11.9039478,4.35704767 Z" id="Combined-Shape" fill="#000000" fill-rule="nonzero"></path>
    </g>
</svg>
